# xmcd
#
# Track frame offsets:
#	150
#	16875
#	33705
#	55575
#	77250
#	97237
#	113225
#	126562
#	144861
#	165090
#	181035
#	199070
#
# Disc length: 2969 seconds
#
# Revision: 1
# Processed by: cddbd v1.5PL3 Copyright (c) Steve Scherf et al.
# Submitted via: audiograbber 1.80
#
DISCID=910b970c
DTITLE=Richard Dangel - New Evidence
DYEAR=1900
DGENRE=
TTITLE0=The Big Slip
TTITLE1=Hymn for Him
TTITLE2=In a Certain Mood
TTITLE3=Secrets Best Kept
TTITLE4=Same Old Blues
TTITLE5=Angela's Lullabye
TTITLE6=Time Takes Time
TTITLE7=On the Other Side
TTITLE8=Moving Parts
TTITLE9=Haley's Way
TTITLE10=Still Thinkin' About It
TTITLE11=Serenade for H. R.
EXTD=
EXTT0=
EXTT1=
EXTT2=
EXTT3=
EXTT4=
EXTT5=
EXTT6=
EXTT7=
EXTT8=
EXTT9=
EXTT10=
EXTT11=
PLAYORDER=
